<svg xmlns="http://www.w3.org/2000/svg" viewBox="0 0 600 600" fill="none">
  <rect width="600" height="600" fill="#F6F1E4"/>
  <rect x="40" y="40" width="520" height="520" rx="22" fill="#FBF7EC" stroke="#CFD9B8" stroke-width="2"/>
  <g transform="translate(300 280)" stroke="#103B14" stroke-width="3" stroke-linecap="round" stroke-linejoin="round" fill="none" opacity="0.55">
    <path d="M0 -90c-18 0 -36 18 -36 36c0 24 18 30 18 54c0 12 -12 24 -24 24c-12 0 -18 -6 -18 -18"/>
    <path d="M0 -90c18 0 36 18 36 36c0 24 -18 30 -18 54c0 12 12 24 24 24c12 0 18 -6 18 -18"/>
    <path d="M0 -90v180"/>
    <ellipse cx="0" cy="-90" rx="10" ry="6"/>
  </g>
  <text x="300" y="490" text-anchor="middle" font-family="system-ui, sans-serif" font-size="22" font-weight="600" fill="#103B14" letter-spacing="0.04em">MARY JANE'S PLACE</text>
  <text x="300" y="520" text-anchor="middle" font-family="system-ui, sans-serif" font-size="13" fill="#556B2F" letter-spacing="0.16em">PRODUCT IMAGE</text>
</svg>
